<?xml version="1.0" encoding="utf-8"?>
<!-- Generator: Adobe Illustrator 25.2.0, SVG Export Plug-In . SVG Version: 6.00 Build 0)  -->
<svg version="1.1" id="Layer_1" xmlns="http://www.w3.org/2000/svg" xmlns:xlink="http://www.w3.org/1999/xlink" x="0px" y="0px"
	 viewBox="0 0 1920 1080" style="enable-background:new 0 0 1920 1080;" xml:space="preserve">
<style type="text/css">
	.st0{clip-path:url(#SVGID_2_);}
	.st1{fill:#2FD198;}
	.st2{fill:#74849B;}
	.st3{clip-path:url(#SVGID_2_);fill:#2FD198;}
	.st4{fill:#FFFFFF;}
	.st5{fill:#748919;}
</style>
<g>
	<defs>
		<rect id="SVGID_1_" x="-0.07" y="0.99" width="1920.07" height="1079.51"/>
	</defs>
	<clipPath id="SVGID_2_">
		<use xlink:href="#SVGID_1_"  style="overflow:visible;"/>
	</clipPath>
	<g class="st0">
		<image style="overflow:visible;" width="1921" height="1081" xlink:href="9354DFD0.png"  transform="matrix(1 0 0 1 -1 0)">
		</image>
	</g>
	<g class="st0">
		<path class="st1" d="M813.78,955.4c5.63,29.17,54.12,123.5,54.82,125.1l0,0c0,0-13.58,9.05-39.81,26.52c0,0-22.82,2.98-57.14,7.45
			c-3.93-15.71-80.66-9.05-100.61-7.45c-130.76,10.44-215.4-0.38-336,4.68c-234.45,9.83-329.28,19.46-343.55-18.59
			c-3.09-8.24,0.18-11.76,4.98-38.62c9.46-52.85,5.09-85.49,2.49-143.26c-1.07-23.76,1.21,16.04,0-168.17
			c-0.35-53.89,1.45-118.8,0-214.26c0-6.23,0-12.46,0-18.69c0-27.82,0-55.64,0-83.46c0-8.72,0-17.44,0-26.16c0-7.06,0-14.12,0-21.18
			c0-17.44,0-26.16,0-26.16c-0.86-2.26-1.45-5.04-0.2-7.2c3.64-6.28,20.27-2.98,27.87-0.6c17.6,5.52,28.84,19.35,35.14,29.52
			c21.54,46.18,48.07,70.68,67.47,84.34c45.65,32.14,67.3,15.2,127.91,53.41c23.46,14.79,24.91,20.29,82.93,61.85
			c0,0,27.61,19.78,50.6,35.14c84.84,56.69,180.4,34.34,262.85,84.34C712.55,729.74,782.86,795.16,813.78,955.4z"/>
	</g>
	<g class="st0">
		<circle class="st1" cx="1896.81" cy="28.4" r="97.69"/>
	</g>
	<g class="st0">
		<path class="st4" d="M120.17,769.85c0-3.37,0.36-6.38,1.15-9.03c0.79-2.65,1.72-4.8,2.94-6.38c1.22-1.58,2.65-2.87,4.37-3.94
			c1.72-1.07,3.37-1.79,5.09-2.22c1.72-0.43,3.51-0.57,5.38-0.57c3.08,0,7.1,0.36,12.04,1.15c0.72,0.07,1.15,0.43,1.15,0.93v3.66
			c0,0.5-0.29,0.79-0.86,0.79h-0.21c-5.16-0.43-9.17-0.65-12.04-0.65c-1.86,0-3.51,0.29-4.95,0.86c-1.43,0.57-2.8,1.51-3.94,2.72
			s-2.01,2.87-2.65,5.02c-0.65,2.15-0.93,4.73-0.93,7.67v9.96c0,2.94,0.29,5.45,0.93,7.6c0.65,2.15,1.51,3.87,2.65,5.09
			c1.15,1.22,2.44,2.15,3.94,2.72c1.51,0.57,3.15,0.86,4.95,0.86c3.3,0,7.24-0.22,11.83-0.57h0.29c0.72,0,1.15,0.36,1.15,1.15v2.94
			c0,0.79-0.5,1.29-1.43,1.43c-3.3,0.57-7.24,0.93-11.9,0.93c-1.86,0-3.66-0.22-5.38-0.65c-1.72-0.43-3.37-1.08-5.09-2.15
			c-1.72-1.07-3.15-2.44-4.37-4.01c-1.22-1.58-2.15-3.73-2.94-6.38c-0.79-2.65-1.15-5.59-1.15-8.96V769.85z"/>
		<path class="st4" d="M159.74,748.99c0-0.43,0.07-0.72,0.36-1c0.29-0.29,0.57-0.43,1-0.43h3.58c0.43,0,0.79,0.14,1,0.43
			c0.21,0.29,0.36,0.57,0.36,1v14.77c1.65-0.72,3.44-1.29,5.45-1.65c2.01-0.36,3.87-0.57,5.52-0.57c4.01,0,7.17,1.22,9.46,3.66
			c2.29,2.44,3.44,6.16,3.44,11.25v23.58c0,0.43-0.14,0.72-0.43,1c-0.29,0.29-0.57,0.43-1,0.43h-3.44c-0.43,0-0.72-0.14-1-0.43
			c-0.29-0.29-0.43-0.57-0.43-1v-23.58c0-3.44-0.64-5.81-1.93-7.24c-1.29-1.43-3.23-2.15-5.73-2.15c-1.36,0-2.94,0.14-4.87,0.5
			c-1.94,0.36-3.58,0.86-5.02,1.5v30.97c0,0.36-0.14,0.72-0.43,1c-0.29,0.29-0.57,0.43-1,0.43h-3.51c-0.36,0-0.65-0.14-0.93-0.43
			c-0.29-0.29-0.43-0.57-0.43-1V748.99z"/>
		<path class="st4" d="M198.16,789.49c0-4.01,1.29-6.95,3.94-8.82c2.65-1.86,7.1-2.8,13.33-2.8h5.3v-2.87
			c0-3.01-0.57-5.09-1.72-6.31s-3.15-1.79-5.95-1.79c-3.51,0-7.17,0.21-10.97,0.57h-0.36c-0.86,0-1.29-0.36-1.29-1.15v-2.51
			c0-0.79,0.5-1.22,1.51-1.36c3.8-0.65,7.53-0.93,11.11-0.93c4.87,0,8.39,1.15,10.61,3.44c2.22,2.29,3.37,5.66,3.37,10.03v25.02
			c0,0.43-0.14,0.72-0.43,1c-0.29,0.29-0.57,0.43-1,0.43h-3.3c-0.43,0-0.72-0.14-1-0.43c-0.29-0.29-0.43-0.57-0.43-1v-1.58
			c-4.01,2.37-7.67,3.51-11.04,3.51c-1.58,0-3.08-0.22-4.44-0.57c-1.36-0.36-2.51-1-3.66-1.86s-2.01-2.01-2.65-3.58
			c-0.65-1.58-0.93-3.44-0.93-5.59V789.49z M206.12,795.36c1.07,0.93,2.72,1.43,4.95,1.43c2.87,0,6.16-0.93,9.68-2.87v-11.54h-5.3
			c-4.23,0-7.17,0.57-8.67,1.58c-1.51,1-2.29,2.87-2.29,5.45v0.86C204.47,792.71,205.04,794.43,206.12,795.36z"/>
		<path class="st4" d="M236.73,763.47c0-0.43,0.07-0.72,0.36-1c0.29-0.29,0.57-0.43,1-0.43h3.58c0.43,0,0.79,0.14,1,0.43
			c0.21,0.29,0.36,0.57,0.36,1v1.36c2.08-1.15,3.94-2.01,5.66-2.51c1.72-0.5,3.66-0.79,5.73-0.79c8.31,0,12.47,4.95,12.47,14.91
			v23.58c0,0.43-0.14,0.72-0.43,1c-0.29,0.29-0.57,0.43-1,0.43h-3.44c-0.43,0-0.72-0.14-1-0.43c-0.29-0.29-0.43-0.57-0.43-1v-23.58
			c0-3.51-0.64-6.02-1.86-7.38c-1.22-1.36-3.23-2.08-6.02-2.08c-2.72,0-5.95,0.93-9.68,2.79v30.25c0,0.36-0.14,0.72-0.43,1
			c-0.29,0.29-0.57,0.43-1,0.43h-3.51c-0.36,0-0.65-0.14-0.93-0.43c-0.29-0.29-0.43-0.57-0.43-1V763.47z"/>
		<path class="st4" d="M294.94,750.28c0-0.57,0.14-1.07,0.57-1.51c0.43-0.43,0.93-0.57,1.51-0.57h4.66c0.65,0,1.15,0.07,1.51,0.22
			c0.36,0.14,0.57,0.5,0.79,1L315.79,774c0.22,0.5,0.5,0.79,0.86,0.79c0.36,0,0.65-0.29,0.86-0.79l11.83-24.59
			c0.21-0.5,0.43-0.86,0.79-1c0.36-0.14,0.86-0.22,1.51-0.22h4.66c0.57,0,1.07,0.14,1.51,0.57c0.43,0.43,0.57,0.93,0.57,1.51v49.75
			c0,0.43-0.14,0.72-0.43,1c-0.29,0.29-0.57,0.43-1,0.43h-3.51c-0.43,0-0.72-0.14-1-0.43c-0.29-0.29-0.43-0.57-0.43-1v-42.51
			c0-0.14,0-0.22-0.07-0.22c-0.07,0-0.07,0-0.14,0.14l-10.25,21.22c-0.36,0.72-0.72,1.29-1.22,1.58c-0.5,0.29-1.15,0.5-2.01,0.5
			h-3.3c-0.86,0-1.58-0.22-2.01-0.5c-0.43-0.29-0.86-0.86-1.22-1.58l-10.25-21.22c-0.07-0.14-0.07-0.14-0.14-0.14
			c-0.07,0-0.07,0.07-0.07,0.22v42.51c0,0.43-0.14,0.72-0.43,1c-0.29,0.29-0.57,0.43-1,0.43h-3.51c-0.43,0-0.72-0.14-1-0.43
			c-0.29-0.29-0.43-0.57-0.43-1V750.28z"/>
		<path class="st4" d="M349.42,748.56c0-0.43,0.14-0.72,0.43-1c0.29-0.29,0.57-0.43,1-0.43h3.66c0.43,0,0.72,0.14,1,0.43
			c0.29,0.29,0.43,0.57,0.43,1v5.73c0,0.43-0.14,0.72-0.43,1c-0.29,0.29-0.57,0.43-1,0.43h-3.66c-0.43,0-0.72-0.14-1-0.43
			c-0.29-0.29-0.43-0.57-0.43-1V748.56z M349.49,763.47c0-0.43,0.14-0.72,0.43-1c0.29-0.29,0.57-0.43,1-0.43h3.44
			c0.43,0,0.72,0.14,1,0.43c0.29,0.29,0.43,0.57,0.43,1v36.56c0,0.43-0.14,0.72-0.43,1c-0.29,0.29-0.57,0.43-1,0.43h-3.44
			c-0.43,0-0.72-0.14-1-0.43c-0.29-0.29-0.43-0.57-0.43-1V763.47z"/>
		<path class="st4" d="M364.9,789.49c0-4.01,1.29-6.95,3.94-8.82c2.65-1.86,7.1-2.8,13.33-2.8h5.3v-2.87c0-3.01-0.57-5.09-1.72-6.31
			c-1.15-1.22-3.15-1.79-5.95-1.79c-3.51,0-7.17,0.21-10.97,0.57h-0.36c-0.86,0-1.29-0.36-1.29-1.15v-2.51
			c0-0.79,0.5-1.22,1.51-1.36c3.8-0.65,7.53-0.93,11.11-0.93c4.87,0,8.39,1.15,10.61,3.44c2.22,2.29,3.37,5.66,3.37,10.03v25.02
			c0,0.43-0.14,0.72-0.43,1c-0.29,0.29-0.57,0.43-1,0.43h-3.3c-0.43,0-0.72-0.14-1-0.43c-0.29-0.29-0.43-0.57-0.43-1v-1.58
			c-4.01,2.37-7.67,3.51-11.04,3.51c-1.58,0-3.08-0.22-4.44-0.57c-1.36-0.36-2.51-1-3.66-1.86c-1.15-0.86-2.01-2.01-2.65-3.58
			c-0.65-1.58-0.93-3.44-0.93-5.59V789.49z M372.86,795.36c1.07,0.93,2.72,1.43,4.95,1.43c2.87,0,6.16-0.93,9.68-2.87v-11.54h-5.3
			c-4.23,0-7.17,0.57-8.67,1.58c-1.51,1-2.29,2.87-2.29,5.45v0.86C371.21,792.71,371.78,794.43,372.86,795.36z"/>
		<path class="st4" d="M420.03,788.27c0-2.87,0.79-5.38,2.37-7.46c1.58-2.08,4.23-4.3,7.96-6.67l-0.5-0.57
			c-3.08-3.51-5.16-6.31-6.09-8.24c-0.93-1.94-1.36-3.8-1.36-5.66v-0.57c0-3.73,1.36-6.52,4.01-8.46s6.31-2.94,11.04-2.94
			c2.72,0,5.16,0.36,7.24,1.22c2.08,0.86,3.8,2.15,5.09,3.87c1.29,1.72,1.94,3.87,1.94,6.31v0.57c0,2.51-0.72,4.8-2.22,6.81
			c-1.51,2.01-4.37,4.44-8.74,7.38l-2.01,1.36l12.97,13.98c1.86-3.37,2.8-7.53,2.8-12.62v-1c0-0.79,0.43-1.15,1.15-1.15h3.08
			c0.79,0,1.22,0.36,1.22,1.15v1c0,6.52-1.51,12.04-4.52,16.49l6.38,6.81c0.22,0.22,0.36,0.5,0.36,0.79c0,0.21-0.14,0.43-0.29,0.57
			c-0.14,0.14-0.29,0.22-0.5,0.22h-4.95c-0.43,0-0.79-0.14-1.15-0.5l-3.58-3.87c-3.8,3.22-8.46,4.87-14.12,4.87
			c-2.29,0-4.44-0.22-6.45-0.72c-2.01-0.5-3.87-1.15-5.59-2.15c-1.72-1-3.01-2.37-4.01-4.09c-1-1.72-1.51-3.8-1.51-6.16V788.27z
			 M429.7,795.01c2.08,1.36,4.73,2.01,7.88,2.01c4.3,0,7.81-1.22,10.68-3.66L434,778.09c-2.87,1.79-4.8,3.37-5.81,4.8
			c-1,1.43-1.58,3.15-1.58,5.38v0.57C426.62,791.57,427.62,793.64,429.7,795.01z M429.34,763.97c0.72,1.43,2.37,3.58,5.02,6.45
			l0.72,0.79l2.44-1.51c3.44-2.15,5.66-3.8,6.67-5.09s1.58-2.94,1.58-4.95v-0.57c0-2.29-0.72-3.94-2.22-5.02
			c-1.51-1.07-3.51-1.58-6.09-1.58c-6.09,0-9.17,2.15-9.17,6.59v0.57C428.27,761.17,428.63,762.54,429.34,763.97z"/>
		<path class="st4" d="M490.35,750.85c2.94-2.08,7.24-3.15,12.76-3.15c4.52,0,8.67,0.29,12.47,0.86c0.79,0.14,1.22,0.57,1.22,1.22
			v3.08c0,0.36-0.14,0.57-0.36,0.79c-0.22,0.22-0.5,0.36-0.86,0.36h-0.14c-4.23-0.29-8.31-0.43-12.33-0.43c-3.8,0-6.52,0.5-8.1,1.5
			c-1.58,1-2.44,2.72-2.44,5.31c0,1.58,0.57,3.01,1.72,4.23c1.15,1.22,3.23,2.72,6.09,4.44l6.59,3.94c4.16,2.44,7.02,4.73,8.74,6.95
			c1.72,2.22,2.51,4.8,2.51,7.67c0,1.5-0.22,2.87-0.5,4.16c-0.29,1.29-0.86,2.58-1.72,3.87s-1.86,2.29-3.15,3.23
			c-1.29,0.93-3.01,1.65-5.09,2.22c-2.08,0.57-4.52,0.86-7.24,0.86c-3.73,0-7.67-0.36-11.9-1c-0.57-0.07-1-0.21-1.15-0.36
			c-0.14-0.14-0.21-0.5-0.21-0.93v-2.87c0-0.36,0.14-0.65,0.36-0.86c0.21-0.22,0.5-0.29,0.86-0.29h0.21
			c3.3,0.29,7.24,0.43,11.83,0.43c4.09,0,6.88-0.72,8.46-2.15c1.58-1.43,2.44-3.58,2.44-6.31c0-1.72-0.57-3.3-1.79-4.59
			c-1.22-1.29-3.44-2.94-6.81-5.02l-6.95-4.23c-3.44-2.08-5.95-4.23-7.53-6.24c-1.58-2.01-2.37-4.44-2.37-7.17
			C485.98,756.09,487.41,752.93,490.35,750.85z"/>
		<path class="st4" d="M525.33,779.02c0-5.38,1.36-9.61,4.09-12.76c2.72-3.15,6.67-4.73,11.83-4.73s9.17,1.58,11.9,4.73
			c2.72,3.15,4.09,7.38,4.09,12.76v5.45c0,5.38-1.36,9.6-4.09,12.76c-2.72,3.15-6.74,4.73-11.9,4.73s-9.1-1.58-11.83-4.73
			c-2.72-3.15-4.09-7.38-4.09-12.76V779.02z M534,793.29c1.58,2.08,3.94,3.15,7.24,3.15c3.23,0,5.73-1.08,7.31-3.15
			c1.58-2.08,2.37-5.02,2.37-8.82v-5.45c0-3.8-0.79-6.74-2.37-8.82c-1.58-2.08-4.01-3.15-7.31-3.15c-3.23,0-5.66,1.07-7.24,3.15
			c-1.58,2.08-2.37,5.02-2.37,8.82v5.45C531.64,788.27,532.43,791.21,534,793.29z"/>
		<path class="st4" d="M565.62,763.47c0-0.43,0.07-0.72,0.36-1c0.29-0.29,0.57-0.43,1-0.43h3.58c0.43,0,0.79,0.14,1,0.43
			c0.21,0.29,0.36,0.57,0.36,1v1.36c2.08-1.15,3.94-2.01,5.66-2.51c1.72-0.5,3.66-0.79,5.73-0.79c8.31,0,12.47,4.95,12.47,14.91
			v23.58c0,0.43-0.14,0.72-0.43,1c-0.29,0.29-0.57,0.43-1,0.43h-3.44c-0.43,0-0.72-0.14-1-0.43c-0.29-0.29-0.43-0.57-0.43-1v-23.58
			c0-3.51-0.65-6.02-1.86-7.38c-1.22-1.36-3.23-2.08-6.02-2.08c-2.72,0-5.95,0.93-9.68,2.79v30.25c0,0.36-0.14,0.72-0.43,1
			c-0.29,0.29-0.57,0.43-1,0.43h-3.51c-0.36,0-0.65-0.14-0.93-0.43c-0.29-0.29-0.43-0.57-0.43-1V763.47z"/>
		<path class="st4" d="M604.19,796.94c0-0.29,0.07-0.57,0.36-0.79c0.29-0.22,0.57-0.29,0.93-0.29h0.29c4.37,0.5,8.1,0.79,11.25,0.79
			c2.44,0,4.23-0.36,5.38-1.15c1.15-0.79,1.72-2.08,1.72-3.94c0-1.07-0.36-2.01-1.15-2.87c-0.79-0.86-2.15-1.86-4.23-3.08l-7.24-4.3
			c-2.37-1.43-4.16-2.94-5.45-4.59c-1.29-1.65-1.86-3.51-1.86-5.66c0-1.79,0.29-3.3,0.93-4.59c0.65-1.29,1.58-2.29,2.8-3.01
			c1.22-0.72,2.58-1.22,4.09-1.51c1.51-0.29,3.23-0.43,5.16-0.43c3.66,0,7.38,0.29,11.18,0.93c0.86,0.14,1.36,0.65,1.36,1.43v2.37
			c0,0.79-0.43,1.22-1.22,1.22h-0.21c-4.44-0.36-8.17-0.57-11.11-0.57c-2.29,0-3.94,0.29-5.02,0.86c-1.07,0.57-1.65,1.65-1.65,3.3
			c0,1,0.36,1.94,1.15,2.72c0.79,0.79,2.01,1.72,3.8,2.72l7.1,4.23c2.87,1.72,4.95,3.37,6.09,5.02c1.15,1.65,1.79,3.66,1.79,5.81
			c0,3.51-1.22,6.09-3.58,7.81c-2.37,1.72-5.59,2.58-9.82,2.58c-4.73,0-8.53-0.36-11.33-1.08c-1-0.21-1.51-0.72-1.51-1.43V796.94z"
			/>
	</g>
	<g class="st0">
		<path class="st5" d="M121.61,850.84c0-0.27,0.11-0.48,0.32-0.69c0.21-0.21,0.43-0.27,0.75-0.27h25.69c0.32,0,0.53,0.11,0.75,0.27
			c0.21,0.16,0.27,0.37,0.27,0.69v2.35c0,0.27-0.05,0.48-0.27,0.64c-0.21,0.16-0.43,0.21-0.75,0.21h-10.41v34.45
			c0,0.27-0.11,0.53-0.27,0.75c-0.16,0.21-0.43,0.32-0.69,0.32h-2.94c-0.27,0-0.48-0.11-0.69-0.32c-0.21-0.21-0.27-0.43-0.27-0.75
			v-34.45h-10.41c-0.69,0-1.07-0.27-1.07-0.85V850.84z"/>
		<path class="st5" d="M154.84,850.47c0-0.32,0.05-0.53,0.27-0.75c0.21-0.21,0.43-0.32,0.75-0.32h2.67c0.32,0,0.59,0.11,0.75,0.32
			c0.16,0.21,0.27,0.43,0.27,0.75v11c1.23-0.53,2.56-0.96,4.06-1.23c1.5-0.27,2.88-0.43,4.11-0.43c2.99,0,5.34,0.91,7.05,2.72
			c1.71,1.82,2.56,4.59,2.56,8.39v17.57c0,0.32-0.11,0.53-0.32,0.75c-0.21,0.21-0.43,0.32-0.75,0.32h-2.56
			c-0.32,0-0.53-0.11-0.75-0.32c-0.21-0.21-0.32-0.43-0.32-0.75v-17.57c0-2.56-0.48-4.33-1.44-5.39c-0.96-1.07-2.4-1.6-4.27-1.6
			c-1.02,0-2.19,0.11-3.63,0.37c-1.44,0.27-2.67,0.64-3.74,1.12v23.07c0,0.27-0.11,0.53-0.32,0.75c-0.21,0.21-0.43,0.32-0.75,0.32
			h-2.62c-0.27,0-0.48-0.11-0.69-0.32c-0.21-0.21-0.32-0.43-0.32-0.75V850.47z"/>
		<path class="st5" d="M183.57,872.31c0-3.9,1.01-6.94,3.1-9.19c2.08-2.24,4.97-3.31,8.76-3.31c3.85,0,6.73,1.07,8.76,3.31
			c2.03,2.24,2.99,5.29,2.99,9.19v2.88c0,0.37-0.11,0.64-0.27,0.86c-0.16,0.21-0.43,0.32-0.75,0.32h-17.89v0.75
			c0,3.1,0.59,5.34,1.82,6.68c1.23,1.34,3.1,2.03,5.61,2.03c3.68,0,6.84-0.21,9.51-0.59h0.27c0.21,0,0.43,0.11,0.59,0.21
			c0.16,0.11,0.27,0.27,0.27,0.53v1.82c0,0.37-0.05,0.64-0.21,0.86c-0.16,0.21-0.43,0.32-0.86,0.37c-2.99,0.59-6.19,0.91-9.56,0.91
			c-1.28,0-2.51-0.11-3.63-0.37s-2.24-0.64-3.31-1.28c-1.07-0.64-1.98-1.39-2.72-2.35c-0.75-0.96-1.39-2.19-1.82-3.68
			c-0.43-1.5-0.64-3.21-0.64-5.13V872.31z M202.43,872.79v-0.48c0-2.94-0.59-5.07-1.71-6.41c-1.12-1.34-2.88-1.98-5.29-1.98
			c-4.75,0-7.16,2.83-7.16,8.38v0.48H202.43z"/>
		<path class="st5" d="M225.72,886.2c0-0.21,0.05-0.43,0.27-0.59c0.21-0.16,0.43-0.21,0.69-0.21h0.21c3.26,0.37,6.03,0.59,8.38,0.59
			c1.82,0,3.15-0.27,4.01-0.85c0.85-0.59,1.28-1.55,1.28-2.94c0-0.8-0.27-1.49-0.85-2.14c-0.59-0.64-1.6-1.39-3.15-2.3l-5.39-3.21
			c-1.76-1.07-3.1-2.19-4.06-3.42c-0.96-1.23-1.39-2.62-1.39-4.22c0-1.34,0.21-2.46,0.69-3.42c0.48-0.96,1.18-1.71,2.08-2.24
			c0.91-0.53,1.92-0.91,3.04-1.12c1.12-0.21,2.4-0.32,3.85-0.32c2.72,0,5.5,0.21,8.33,0.69c0.64,0.11,1.02,0.48,1.02,1.07v1.76
			c0,0.59-0.32,0.91-0.91,0.91h-0.16c-3.31-0.27-6.09-0.43-8.28-0.43c-1.71,0-2.94,0.21-3.74,0.64c-0.8,0.43-1.23,1.23-1.23,2.46
			c0,0.75,0.27,1.44,0.85,2.03c0.59,0.59,1.5,1.28,2.83,2.03l5.29,3.15c2.14,1.28,3.68,2.51,4.54,3.74
			c0.85,1.23,1.33,2.72,1.33,4.33c0,2.62-0.91,4.54-2.67,5.82c-1.76,1.28-4.17,1.92-7.32,1.92c-3.53,0-6.36-0.27-8.44-0.8
			c-0.75-0.16-1.12-0.53-1.12-1.07V886.2z"/>
		<path class="st5" d="M249.22,861.15c0-0.32,0.11-0.53,0.27-0.69c0.16-0.16,0.43-0.27,0.75-0.27h5.18v-5.23
			c0-0.27,0.11-0.48,0.27-0.69c0.16-0.21,0.37-0.32,0.69-0.37l2.78-0.43h0.16c0.21,0,0.37,0.11,0.53,0.27
			c0.16,0.16,0.27,0.37,0.27,0.64v5.82h5.77c0.32,0,0.53,0.11,0.75,0.32c0.21,0.21,0.32,0.43,0.32,0.75v1.81
			c0,0.32-0.11,0.54-0.32,0.75c-0.21,0.21-0.43,0.32-0.75,0.32h-5.77v18.64c0,1.39,0.21,2.3,0.59,2.72c0.37,0.43,1.18,0.64,2.3,0.64
			h2.99c0.75,0,1.12,0.27,1.12,0.75v1.87c0,0.53-0.32,0.8-0.96,0.91c-1.18,0.16-2.35,0.27-3.47,0.27c-1.28,0-2.35-0.11-3.2-0.32
			c-0.85-0.21-1.6-0.53-2.24-1.07c-0.64-0.53-1.12-1.23-1.39-2.19c-0.27-0.96-0.43-2.14-0.43-3.58v-18.64l-5.18-0.59
			c-0.69-0.05-1.02-0.37-1.02-0.96V861.15z"/>
		<path class="st5" d="M271.06,872.85c0-4.01,1.01-7.16,3.04-9.51c2.03-2.35,4.97-3.53,8.81-3.53s6.84,1.17,8.87,3.53
			c2.03,2.35,3.04,5.5,3.04,9.51v4.06c0,4.01-1.01,7.16-3.04,9.51c-2.03,2.35-5.02,3.52-8.87,3.52s-6.78-1.17-8.81-3.52
			c-2.03-2.35-3.04-5.5-3.04-9.51V872.85z M277.53,883.47c1.17,1.55,2.94,2.35,5.39,2.35c2.4,0,4.27-0.8,5.45-2.35
			c1.18-1.55,1.76-3.74,1.76-6.57v-4.06c0-2.83-0.59-5.02-1.76-6.57c-1.18-1.55-2.99-2.35-5.45-2.35c-2.4,0-4.22,0.8-5.39,2.35
			c-1.18,1.55-1.76,3.74-1.76,6.57v4.06C275.76,879.73,276.35,881.92,277.53,883.47z"/>
		<path class="st5" d="M301.08,861.26c0-0.32,0.05-0.53,0.27-0.75c0.21-0.21,0.43-0.32,0.75-0.32h2.51c0.32,0,0.48,0.11,0.69,0.32
			c0.21,0.21,0.32,0.43,0.32,0.75v1.12c2.46-1.71,4.91-2.56,7.53-2.56c0.75,0,1.12,0.32,1.12,0.96v2.19c0,0.59-0.37,0.91-1.12,0.91
			c-2.4,0-4.86,0.75-7.37,2.24v22.38c0,0.27-0.11,0.53-0.32,0.75c-0.21,0.21-0.43,0.32-0.75,0.32h-2.62c-0.27,0-0.48-0.11-0.69-0.32
			c-0.21-0.21-0.32-0.43-0.32-0.75V861.26z"/>
		<path class="st5" d="M318.33,872.31c0-3.9,1.01-6.94,3.1-9.19c2.08-2.24,4.97-3.31,8.76-3.31c3.85,0,6.73,1.07,8.76,3.31
			c2.03,2.24,2.99,5.29,2.99,9.19v2.88c0,0.37-0.11,0.64-0.27,0.86c-0.16,0.21-0.43,0.32-0.75,0.32h-17.89v0.75
			c0,3.1,0.59,5.34,1.82,6.68c1.23,1.34,3.1,2.03,5.61,2.03c3.68,0,6.84-0.21,9.51-0.59h0.27c0.21,0,0.43,0.11,0.59,0.21
			c0.16,0.11,0.27,0.27,0.27,0.53v1.82c0,0.37-0.05,0.64-0.21,0.86c-0.16,0.21-0.43,0.32-0.86,0.37c-2.99,0.59-6.19,0.91-9.56,0.91
			c-1.28,0-2.51-0.11-3.63-0.37s-2.24-0.64-3.31-1.28c-1.07-0.64-1.98-1.39-2.72-2.35c-0.75-0.96-1.39-2.19-1.82-3.68
			c-0.43-1.5-0.64-3.21-0.64-5.13V872.31z M337.19,872.79v-0.48c0-2.94-0.59-5.07-1.71-6.41c-1.12-1.34-2.88-1.98-5.29-1.98
			c-4.75,0-7.16,2.83-7.16,8.38v0.48H337.19z"/>
		<path class="st5" d="M360.48,872.85c0-4.01,1.01-7.16,3.04-9.51c2.03-2.35,4.97-3.53,8.81-3.53c3.85,0,6.84,1.17,8.87,3.53
			c2.03,2.35,3.04,5.5,3.04,9.51v4.06c0,4.01-1.01,7.16-3.04,9.51c-2.03,2.35-5.02,3.52-8.87,3.52c-3.85,0-6.78-1.17-8.81-3.52
			c-2.03-2.35-3.04-5.5-3.04-9.51V872.85z M366.94,883.47c1.18,1.55,2.94,2.35,5.39,2.35c2.4,0,4.27-0.8,5.45-2.35
			c1.18-1.55,1.76-3.74,1.76-6.57v-4.06c0-2.83-0.59-5.02-1.76-6.57c-1.17-1.55-2.99-2.35-5.45-2.35c-2.4,0-4.22,0.8-5.39,2.35
			c-1.18,1.55-1.76,3.74-1.76,6.57v4.06C365.18,879.73,365.76,881.92,366.94,883.47z"/>
		<path class="st5" d="M388.2,861.15c0-0.27,0.05-0.53,0.27-0.69c0.21-0.16,0.43-0.27,0.75-0.27h5.18v-3.85
			c0-2.72,0.64-4.65,1.87-5.77s3.1-1.66,5.61-1.66c1.02,0,1.98,0.11,2.99,0.32c0.69,0.16,1.01,0.48,1.01,0.85v1.76
			c0,0.53-0.32,0.8-0.96,0.8h-2.56c-1.28,0-2.14,0.27-2.56,0.75c-0.43,0.48-0.69,1.5-0.69,2.94v3.85h5.61
			c0.32,0,0.53,0.11,0.75,0.27c0.21,0.16,0.27,0.43,0.27,0.69v2.08c0,0.27-0.05,0.48-0.27,0.64c-0.21,0.16-0.43,0.27-0.75,0.27
			h-5.61v24.35c0,0.27-0.11,0.53-0.32,0.75c-0.21,0.21-0.43,0.32-0.69,0.32h-2.62c-0.32,0-0.53-0.11-0.75-0.32
			c-0.21-0.21-0.32-0.48-0.32-0.75v-24.35l-5.18-0.59c-0.32-0.05-0.53-0.16-0.75-0.32c-0.21-0.16-0.27-0.37-0.27-0.64V861.15z"/>
		<path class="st5" d="M122.42,937.1c0-4.11,0.96-7.37,2.88-9.72c1.92-2.35,4.86-3.47,8.76-3.47c3.26,0,6.52,0.43,9.83,1.23
			c0.48,0.11,0.75,0.21,0.91,0.37c0.16,0.16,0.21,0.48,0.21,0.86v36.74c0,0.27-0.11,0.48-0.27,0.69c-0.16,0.21-0.37,0.32-0.69,0.32
			h-2.72c-0.27,0-0.53-0.11-0.75-0.32c-0.21-0.21-0.27-0.37-0.27-0.69v-9.67c-2.14,0.37-4.22,0.59-6.25,0.59
			c-3.85,0-6.73-1.12-8.71-3.36c-1.98-2.24-2.94-5.5-2.94-9.72V937.1z M128.72,947.78c1.07,1.55,2.83,2.3,5.34,2.3
			c2.08,0,4.17-0.16,6.25-0.53V928.4c-1.92-0.37-4.01-0.53-6.25-0.53c-2.51,0-4.27,0.8-5.34,2.35c-1.07,1.55-1.6,3.9-1.6,6.89v3.84
			C127.12,943.94,127.65,946.23,128.72,947.78z"/>
		<path class="st5" d="M152.22,925.35c0-0.32,0.11-0.53,0.32-0.75c0.21-0.21,0.43-0.32,0.75-0.32h2.56c0.32,0,0.53,0.11,0.75,0.32
			c0.21,0.21,0.32,0.43,0.32,0.75v17.57c0,2.62,0.48,4.43,1.39,5.5c0.91,1.07,2.4,1.55,4.49,1.55c2.03,0,4.43-0.69,7.21-2.08v-22.54
			c0-0.27,0.11-0.53,0.32-0.75c0.21-0.21,0.43-0.32,0.75-0.32h2.62c0.27,0,0.48,0.11,0.69,0.32c0.21,0.21,0.32,0.43,0.32,0.75v27.24
			c0,0.32-0.11,0.53-0.27,0.75c-0.16,0.21-0.43,0.32-0.75,0.32h-2.67c-0.32,0-0.53-0.11-0.75-0.32c-0.21-0.21-0.27-0.43-0.27-0.75
			v-1.01c-1.55,0.85-2.94,1.49-4.22,1.87c-1.28,0.37-2.72,0.59-4.27,0.59c-6.2,0-9.29-3.68-9.29-11.11V925.35z"/>
		<path class="st5" d="M180.85,944.74c0-2.99,0.96-5.18,2.94-6.57c1.98-1.39,5.29-2.08,9.93-2.08h3.95v-2.14
			c0-2.24-0.43-3.79-1.28-4.7c-0.85-0.91-2.35-1.34-4.43-1.34c-2.62,0-5.34,0.16-8.17,0.43h-0.27c-0.64,0-0.96-0.27-0.96-0.85v-1.87
			c0-0.59,0.37-0.91,1.12-1.01c2.83-0.48,5.61-0.69,8.28-0.69c3.63,0,6.25,0.86,7.9,2.56s2.51,4.22,2.51,7.48v18.64
			c0,0.32-0.11,0.53-0.32,0.75c-0.21,0.21-0.43,0.32-0.75,0.32h-2.46c-0.32,0-0.53-0.11-0.75-0.32c-0.21-0.21-0.32-0.43-0.32-0.75
			v-1.17c-2.99,1.76-5.71,2.62-8.23,2.62c-1.17,0-2.3-0.16-3.31-0.43c-1.01-0.27-1.87-0.75-2.72-1.39c-0.85-0.64-1.5-1.5-1.98-2.67
			c-0.48-1.17-0.69-2.56-0.69-4.16V944.74z M186.78,949.12c0.8,0.69,2.03,1.07,3.68,1.07c2.14,0,4.59-0.69,7.21-2.14v-8.6h-3.95
			c-3.15,0-5.34,0.43-6.46,1.17c-1.12,0.75-1.71,2.14-1.71,4.06v0.64C185.55,947.14,185.98,948.42,186.78,949.12z"/>
		<path class="st5" d="M210.12,914.51c0-0.27,0.11-0.48,0.27-0.69c0.16-0.21,0.37-0.32,0.69-0.32h2.78c0.27,0,0.48,0.05,0.69,0.27
			c0.21,0.21,0.27,0.43,0.27,0.75v38.08c0,0.27-0.11,0.53-0.27,0.75c-0.16,0.21-0.43,0.32-0.69,0.32h-2.78
			c-0.27,0-0.48-0.11-0.69-0.32c-0.21-0.21-0.27-0.43-0.27-0.75V914.51z"/>
		<path class="st5" d="M223.1,914.24c0-0.32,0.11-0.53,0.32-0.75c0.21-0.21,0.43-0.32,0.75-0.32h2.72c0.32,0,0.53,0.11,0.75,0.32
			c0.21,0.21,0.32,0.43,0.32,0.75v4.27c0,0.32-0.11,0.53-0.32,0.75c-0.21,0.21-0.43,0.32-0.75,0.32h-2.72
			c-0.32,0-0.53-0.11-0.75-0.32c-0.21-0.21-0.32-0.43-0.32-0.75V914.24z M223.15,925.35c0-0.32,0.11-0.53,0.32-0.75
			c0.21-0.21,0.43-0.32,0.75-0.32h2.56c0.32,0,0.53,0.11,0.75,0.32c0.21,0.21,0.32,0.43,0.32,0.75v27.24c0,0.32-0.11,0.53-0.32,0.75
			c-0.21,0.21-0.43,0.32-0.75,0.32h-2.56c-0.32,0-0.53-0.11-0.75-0.32c-0.21-0.21-0.32-0.43-0.32-0.75V925.35z"/>
		<path class="st5" d="M233.41,925.25c0-0.32,0.11-0.53,0.27-0.69c0.16-0.16,0.43-0.27,0.75-0.27h5.18v-5.23
			c0-0.27,0.11-0.48,0.27-0.69c0.16-0.21,0.37-0.32,0.69-0.37l2.78-0.43h0.16c0.21,0,0.37,0.11,0.53,0.27
			c0.16,0.16,0.27,0.37,0.27,0.64v5.82h5.77c0.32,0,0.53,0.11,0.75,0.32c0.21,0.21,0.32,0.43,0.32,0.75v1.81
			c0,0.32-0.11,0.54-0.32,0.75c-0.21,0.21-0.43,0.32-0.75,0.32h-5.77v18.64c0,1.39,0.21,2.3,0.59,2.72c0.37,0.43,1.18,0.64,2.3,0.64
			h2.99c0.75,0,1.12,0.27,1.12,0.75v1.87c0,0.53-0.32,0.8-0.96,0.91c-1.18,0.16-2.35,0.27-3.47,0.27c-1.28,0-2.35-0.11-3.2-0.32
			c-0.85-0.21-1.6-0.53-2.24-1.07s-1.12-1.23-1.39-2.19c-0.27-0.96-0.43-2.14-0.43-3.58v-18.64l-5.18-0.59
			c-0.69-0.05-1.02-0.37-1.02-0.96V925.25z"/>
		<path class="st5" d="M255.63,924.28h2.94c0.21,0,0.43,0.11,0.59,0.27c0.16,0.16,0.27,0.37,0.32,0.59l6.3,23.18
			c0.11,0.48,0.27,0.8,0.43,0.96c0.16,0.16,0.37,0.21,0.59,0.21h0.85l6.52-24.41c0.05-0.21,0.16-0.37,0.37-0.53
			c0.21-0.16,0.43-0.27,0.64-0.27h2.99c0.27,0,0.48,0.11,0.64,0.27c0.16,0.16,0.21,0.37,0.21,0.64c0,0.21,0,0.32-0.05,0.37
			l-8.81,30.76c-0.59,2.03-1.23,3.58-1.92,4.65c-0.69,1.07-1.66,1.92-2.88,2.46c-1.23,0.53-2.94,0.8-4.97,0.8
			c-1.55,0-3.04-0.16-4.49-0.48c-0.75-0.16-1.12-0.48-1.12-0.85v-1.98c0-0.59,0.32-0.85,1.02-0.85h0.16
			c2.35,0.21,3.95,0.32,4.75,0.32c1.6,0,2.78-0.32,3.52-0.91c0.75-0.59,1.33-1.82,1.76-3.63l0.53-2.19h-0.75
			c-0.43,0-0.85-0.05-1.17-0.11s-0.64-0.27-1.02-0.48c-0.37-0.21-0.64-0.59-0.96-1.12c-0.32-0.53-0.59-1.17-0.8-1.98l-7.1-24.41
			c-0.05-0.05-0.05-0.16-0.05-0.37C254.66,924.6,254.99,924.28,255.63,924.28z"/>
		<path class="st5" d="M297.82,926.37c0-0.37,0.05-0.64,0.21-0.8c0.16-0.16,0.43-0.32,0.91-0.43c3.31-0.8,6.57-1.23,9.83-1.23
			c3.9,0,6.84,1.12,8.76,3.47c1.92,2.35,2.88,5.61,2.88,9.72v3.84c0,4.22-0.96,7.48-2.94,9.72c-1.98,2.24-4.86,3.36-8.7,3.36
			c-1.98,0-4.06-0.21-6.25-0.59v9.67c0,0.27-0.11,0.48-0.27,0.69c-0.16,0.21-0.43,0.32-0.75,0.32h-2.72c-0.27,0-0.48-0.11-0.69-0.32
			c-0.21-0.21-0.27-0.37-0.27-0.69V926.37z M308.77,950.08c2.51,0,4.27-0.75,5.34-2.3c1.07-1.55,1.6-3.84,1.6-6.84v-3.84
			c0-2.99-0.53-5.23-1.6-6.84c-1.07-1.6-2.83-2.4-5.34-2.4c-2.19,0-4.27,0.16-6.25,0.53v21.15
			C304.6,949.92,306.69,950.08,308.77,950.08z"/>
		<path class="st5" d="M326.66,925.35c0-0.32,0.05-0.53,0.27-0.75c0.21-0.21,0.43-0.32,0.75-0.32h2.51c0.32,0,0.48,0.11,0.69,0.32
			c0.21,0.21,0.32,0.43,0.32,0.75v1.12c2.46-1.71,4.91-2.56,7.53-2.56c0.75,0,1.12,0.32,1.12,0.96v2.19c0,0.59-0.37,0.91-1.12,0.91
			c-2.4,0-4.86,0.75-7.37,2.24v22.38c0,0.27-0.11,0.53-0.32,0.75c-0.21,0.21-0.43,0.32-0.75,0.32h-2.62c-0.27,0-0.48-0.11-0.69-0.32
			c-0.21-0.21-0.32-0.43-0.32-0.75V925.35z"/>
		<path class="st5" d="M343.92,936.94c0-4.01,1.01-7.16,3.04-9.51c2.03-2.35,4.97-3.53,8.81-3.53c3.85,0,6.84,1.17,8.87,3.53
			c2.03,2.35,3.04,5.5,3.04,9.51V941c0,4.01-1.01,7.16-3.04,9.51c-2.03,2.35-5.02,3.52-8.87,3.52c-3.85,0-6.78-1.17-8.81-3.52
			c-2.03-2.35-3.04-5.5-3.04-9.51V936.94z M350.38,947.57c1.18,1.55,2.94,2.35,5.39,2.35c2.4,0,4.27-0.8,5.45-2.35
			c1.17-1.55,1.76-3.74,1.76-6.57v-4.06c0-2.83-0.59-5.02-1.76-6.57c-1.18-1.55-2.99-2.35-5.45-2.35c-2.4,0-4.22,0.8-5.39,2.35
			c-1.17,1.55-1.76,3.74-1.76,6.57V941C348.62,943.83,349.2,946.02,350.38,947.57z"/>
		<path class="st5" d="M372.97,936.99c0-4.22,0.96-7.48,2.94-9.72c1.98-2.24,4.86-3.36,8.71-3.36c2.08,0,4.17,0.16,6.25,0.53v-9.93
			c0-0.27,0.05-0.48,0.27-0.69c0.21-0.21,0.43-0.32,0.75-0.32h2.72c0.27,0,0.48,0.05,0.69,0.27c0.21,0.21,0.27,0.43,0.27,0.75v37.38
			c0,0.37-0.05,0.64-0.21,0.86c-0.16,0.21-0.48,0.32-0.91,0.37c-2.99,0.59-6.3,0.91-9.83,0.91c-3.9,0-6.84-1.17-8.76-3.52
			c-1.92-2.35-2.88-5.56-2.88-9.67V936.99z M379.22,947.67c1.07,1.5,2.83,2.24,5.39,2.24c1.49,0,3.63-0.11,6.25-0.32v-21.2
			c-1.39-0.27-3.47-0.37-6.25-0.37c-2.51,0-4.27,0.75-5.34,2.24c-1.07,1.49-1.6,3.74-1.6,6.73v3.84
			C377.67,943.88,378.15,946.18,379.22,947.67z"/>
		<path class="st5" d="M402.78,925.35c0-0.32,0.11-0.53,0.32-0.75c0.21-0.21,0.43-0.32,0.75-0.32h2.56c0.32,0,0.53,0.11,0.75,0.32
			c0.21,0.21,0.32,0.43,0.32,0.75v17.57c0,2.62,0.48,4.43,1.39,5.5s2.4,1.55,4.49,1.55c2.03,0,4.43-0.69,7.21-2.08v-22.54
			c0-0.27,0.11-0.53,0.32-0.75c0.21-0.21,0.43-0.32,0.75-0.32h2.62c0.27,0,0.48,0.11,0.69,0.32c0.21,0.21,0.32,0.43,0.32,0.75v27.24
			c0,0.32-0.11,0.53-0.27,0.75c-0.16,0.21-0.43,0.32-0.75,0.32h-2.67c-0.32,0-0.53-0.11-0.75-0.32c-0.21-0.21-0.27-0.43-0.27-0.75
			v-1.01c-1.55,0.85-2.94,1.49-4.22,1.87c-1.28,0.37-2.72,0.59-4.27,0.59c-6.2,0-9.29-3.68-9.29-11.11V925.35z"/>
		<path class="st5" d="M431.51,936.89c0-4.01,1.01-7.1,2.99-9.45c1.98-2.35,4.75-3.53,8.38-3.53c2.19,0,4.43,0.21,6.68,0.59
			c0.43,0.05,0.69,0.21,0.85,0.37c0.16,0.16,0.21,0.43,0.21,0.8v1.92c0,0.27-0.11,0.43-0.27,0.59c-0.16,0.16-0.37,0.21-0.64,0.21
			h-0.21c-2.19-0.27-4.38-0.37-6.62-0.37c-4.43,0-6.68,2.94-6.68,8.86v4.17c0,5.93,2.24,8.87,6.68,8.87c2.08,0,4.27-0.11,6.62-0.37
			h0.21c0.27,0,0.48,0.05,0.64,0.21c0.16,0.16,0.27,0.32,0.27,0.59v1.92c0,0.37-0.05,0.64-0.21,0.8c-0.16,0.16-0.43,0.32-0.85,0.37
			c-2.19,0.37-4.38,0.59-6.68,0.59c-3.58,0-6.41-1.17-8.38-3.52c-1.98-2.35-2.99-5.45-2.99-9.45V936.89z"/>
		<path class="st5" d="M454.27,925.25c0-0.32,0.11-0.53,0.27-0.69c0.16-0.16,0.43-0.27,0.75-0.27h5.18v-5.23
			c0-0.27,0.11-0.48,0.27-0.69c0.16-0.21,0.37-0.32,0.69-0.37l2.78-0.43h0.16c0.21,0,0.37,0.11,0.53,0.27
			c0.16,0.16,0.27,0.37,0.27,0.64v5.82h5.77c0.32,0,0.53,0.11,0.75,0.32c0.21,0.21,0.32,0.43,0.32,0.75v1.81
			c0,0.32-0.11,0.54-0.32,0.75c-0.21,0.21-0.43,0.32-0.75,0.32h-5.77v18.64c0,1.39,0.21,2.3,0.59,2.72c0.37,0.43,1.18,0.64,2.3,0.64
			h2.99c0.75,0,1.12,0.27,1.12,0.75v1.87c0,0.53-0.32,0.8-0.96,0.91c-1.18,0.16-2.35,0.27-3.47,0.27c-1.28,0-2.35-0.11-3.2-0.32
			c-0.85-0.21-1.6-0.53-2.24-1.07c-0.64-0.53-1.12-1.23-1.39-2.19c-0.27-0.96-0.43-2.14-0.43-3.58v-18.64l-5.18-0.59
			c-0.69-0.05-1.02-0.37-1.02-0.96V925.25z"/>
	</g>
</g>
</svg>
